<svg xmlns="http://www.w3.org/2000/svg" viewBox="0 0 32 32" shape-rendering="crispEdges">
  <rect x="3" y="2" width="3" height="1" fill="#1da4e9"/>
  <rect x="3" y="3" width="4" height="1" fill="#1da4e9"/>
  <rect x="3" y="4" width="5" height="1" fill="#1da4e9"/>
  <rect x="26" y="2" width="3" height="1" fill="#1da4e9"/>
  <rect x="25" y="3" width="4" height="1" fill="#1da4e9"/>
  <rect x="24" y="4" width="5" height="1" fill="#1da4e9"/>
  <rect x="3" y="5" width="26" height="22" fill="#1da4e9"/>
  <rect x="4" y="11" width="24" height="4" fill="#0a0a0a"/>
  <rect x="6" y="12" width="2" height="1" fill="#ffffff"/>
  <rect x="18" y="12" width="2" height="1" fill="#ffffff"/>
  <rect x="11" y="18" width="10" height="6" fill="#1da4e9"/>
  <rect x="13" y="20" width="2" height="2" fill="#0a0a0a"/>
  <rect x="17" y="20" width="2" height="2" fill="#0a0a0a"/>
  <rect x="13" y="25" width="6" height="1" fill="#0a0a0a"/>
  <rect x="19" y="24" width="1" height="1" fill="#0a0a0a"/>
  <rect x="20" y="23" width="1" height="1" fill="#0a0a0a"/>
</svg>
